<?xml version="1.0" encoding="utf-8"?>
<!-- Generator: Adobe Illustrator 15.1.0, SVG Export Plug-In . SVG Version: 6.00 Build 0)  -->
<!DOCTYPE svg PUBLIC "-//W3C//DTD SVG 1.1//EN" "http://www.w3.org/Graphics/SVG/1.1/DTD/svg11.dtd">
<svg version="1.1" id="Layer_1" xmlns="http://www.w3.org/2000/svg" xmlns:xlink="http://www.w3.org/1999/xlink" x="0px" y="0px"
	 width="163.186px" height="84.188px" viewBox="0 0 163.186 84.188" enable-background="new 0 0 163.186 84.188"
	 xml:space="preserve">
<g>
	<path fill="#FFFFFF" d="M1077.129,207.42c12.201-4.8,25.461-5.82,38.42-6.76c-1.02,16.92-1.25,33.88-1.6,50.819
		c-13.59-5.069-27.07-11.229-38.26-20.62c-3.68-3.38-7.83-7.119-8.68-12.3C1066.86,212.83,1072.44,209.35,1077.129,207.42z"/>
</g>
<g>
	<g>
		<path fill="#19171C" d="M52.088,3.259c0.485-0.128,0.979,0.044,1.441,0.186c0.701,0.104,1.424,0.177,2.073,0.483
			c0.313,0.146,0.571,0.376,0.828,0.602c0.39,0.339,0.896,0.479,1.372,0.65c0.545,0.206,1.135,0.014,1.695,0.107
			c0.122,0.014,0.248,0.106,0.225,0.242c-0.001,1.142,0.398,2.228,0.797,3.281c0.317,0.823,0.61,1.66,0.78,2.529
			c0.171,0.879,0.39,1.748,0.582,2.623c0.25,1.102,0.484,2.208,0.77,3.301c0.288,1.103,0.582,2.207,0.773,3.331
			c0.145,0.76,0.141,1.549,0.418,2.281c0.794,2.163,0.851,4.513,1.624,6.682c0.146,0.413,0.278,0.832,0.466,1.229
			c0.199,0.427,0.612,0.717,0.772,1.166c0.161,0.446,0.106,0.929,0.09,1.393c-0.039,0.961,0.024,1.924,0.139,2.878
			c0.084,0.653,0.14,1.317,0.362,1.942c0.176,0.502,0.281,1.025,0.37,1.549c0.092,0.499,0.222,1.01,0.536,1.421
			c0.289,0.374,0.41,0.839,0.629,1.252c0.197,0.382,0.419,0.75,0.615,1.133c0.168,0.341,0.553,0.483,0.889,0.603
			c0.39,0.133,0.817,0.218,1.223,0.105c0.603-0.148,1.112-0.588,1.749-0.615c0.134-0.021,0.179,0.132,0.2,0.233
			c0.074,0.29-0.157,0.532-0.351,0.713c-0.37,0.323-0.89,0.315-1.35,0.366c-0.477,0.03-0.959,0.145-1.434,0.048
			c-1.396-0.321-2.813-0.606-4.251-0.603c-0.569-0.002-1.15,0.02-1.694,0.204c-0.5,0.165-0.929,0.48-1.347,0.79
			c-0.255,0.191-0.575,0.254-0.852,0.404c-0.486,0.27-1.052,0.456-1.612,0.385c-0.131-0.005-0.317-0.128-0.207-0.271
			c0.314-0.359,0.796-0.509,1.244-0.627c0.195-0.049,0.354-0.184,0.485-0.329c0.159-0.165,0.123-0.432,0.281-0.597
			c0.25-0.261,0.329-0.631,0.377-0.977c0.097-0.791,0.019-1.591-0.103-2.372c-0.089-0.599-0.279-1.175-0.421-1.762
			c-0.229-0.972-0.185-1.981-0.364-2.96c-0.31-1.411-0.47-2.852-0.812-4.256c-0.157-0.613-0.306-1.25-0.669-1.778
			c-0.33-0.482-0.907-0.688-1.432-0.879c-0.95-0.313-1.938-0.517-2.935-0.595c-0.938-0.077-1.87,0.126-2.764,0.39
			c-0.238,0.28-0.378,0.634-0.545,0.96c-0.339,0.734-0.615,1.496-0.975,2.221c-0.301,0.627-0.636,1.258-0.712,1.96
			c-0.085,0.639-0.361,1.229-0.645,1.799c-0.448,0.986-0.58,2.078-0.985,3.079c-0.434,1.095-1.039,2.159-1.944,2.932
			c-0.445,0.379-0.989,0.622-1.42,1.019c-0.471,0.431-0.946,0.878-1.534,1.145c-0.468,0.202-0.874,0.526-1.359,0.692
			c-0.701,0.24-1.427,0.395-2.147,0.568c-0.871,0.192-1.767,0.336-2.661,0.27c-0.969-0.148-1.958-0.446-2.708-1.105
			c-0.529-0.451-0.69-1.173-0.783-1.83c-0.081-0.439,0.04-0.875,0.039-1.313c-0.004-0.55,0.257-1.111,0.715-1.427
			c0.326-0.227,0.761-0.299,1.136-0.159c0.196,0.08,0.341,0.244,0.462,0.413c0.104,0.155,0.218,0.331,0.184,0.528
			c-0.406-0.097-0.625-0.548-1.042-0.621c-0.236-0.016-0.416,0.179-0.515,0.373c-0.179,0.369-0.221,0.822-0.049,1.201
			c0.307,0.586,0.325,1.267,0.564,1.878c0.135,0.405,0.435,0.786,0.869,0.884c0.581,0.138,1.184,0.023,1.76-0.088
			c0.616-0.158,1.292-0.11,1.859-0.43c0.486-0.295,0.814-0.775,1.25-1.131c0.326-0.274,0.714-0.482,0.977-0.828
			c0.602-0.785,1.145-1.639,1.44-2.59c0.121-0.381,0.056-0.806,0.247-1.167c0.254-0.477,0.661-0.847,0.957-1.294
			c0.157-0.227,0.206-0.503,0.306-0.755c0.313-0.826,0.657-1.642,1.097-2.41c0.639-1.131,1.145-2.333,1.546-3.568
			c-0.915-0.026-1.855-0.148-2.683-0.561c-0.795-0.517-1.571-1.088-2.184-1.819c-0.443-0.527-0.771-1.156-0.917-1.832
			c0.162-0.051,0.363-0.067,0.49,0.069c0.238,0.249,0.26,0.628,0.495,0.88c0.305,0.347,0.735,0.547,1.073,0.856
			c0.655,0.229,1.38,0.22,2.043,0.024c1.036-0.298,1.916-0.955,2.918-1.335c0.193-0.365,0.298-0.778,0.446-1.166
			c0.569-1.651,1.03-3.365,1.94-4.873c0.321-0.635,0.573-1.307,0.763-1.992c0.146-0.5,0.071-1.044,0.281-1.528
			c0.237-0.563,0.634-1.038,0.911-1.58c0.401-0.775,0.684-1.604,0.957-2.431c0.414-1.278,0.744-2.582,1.028-3.896
			c0.128-0.574,0.133-1.2-0.138-1.735c-0.142-0.265-0.049-0.576-0.142-0.854c-0.08-0.262-0.134-0.542-0.306-0.765
			c-0.317-0.425-0.684-0.817-1.103-1.144c-0.502-0.353-1.042-0.731-1.681-0.733c-0.445,0-0.954,0.116-1.324-0.206
			C51.661,3.509,51.843,3.319,52.088,3.259z M57.206,13.864c-0.337,0.317-0.18,0.825-0.264,1.231
			c-0.331,1.631-0.803,3.229-1.297,4.816c-0.133,0.449-0.174,0.919-0.297,1.37c-0.098,0.357-0.352,0.642-0.489,0.982
			c-0.448,1.115-0.741,2.283-1.09,3.431c1.077,0.003,2.162,0.181,3.158,0.599c1.357,0.55,2.478,1.514,3.635,2.383
			c-0.33-1.307-0.384-2.682-0.87-3.949c-0.164-0.476-0.568-0.818-0.733-1.292c-0.255-0.861-0.099-1.774-0.259-2.65
			c-0.39-2.339-0.567-4.72-1.189-7.016C57.417,13.634,57.286,13.797,57.206,13.864z"/>
	</g>
	<path fill="#19171C" d="M84.058,11.562c0.29-0.021,0.517-0.246,0.811-0.249c0.399-0.022,0.874-0.014,1.162,0.311
		c0.277,0.28,0.672,0.592,0.599,1.037c-0.102,0.399-0.372,0.727-0.556,1.09c-0.209,0.396-0.651,0.575-1.062,0.68
		c-0.521,0.147-1.107,0.199-1.524,0.579c-0.402,0.015-0.761-0.219-1.056-0.469c-0.391-0.331-0.645-0.873-0.494-1.384
		c0.084-0.396,0.382-0.696,0.718-0.9C83.103,11.99,83.52,11.621,84.058,11.562z"/>
	<path fill="#19171C" d="M102.461,13.136c0.709-0.094,1.447-0.068,2.124,0.18c0.447,0.167,0.874,0.395,1.251,0.688
		c0.172,0.138,0.373,0.256,0.489,0.452c0.16,0.264,0.228,0.571,0.315,0.865c0.114,0.402,0.133,0.85-0.058,1.232
		c-0.07,0.196-0.274,0.281-0.436,0.386c-0.409,0.232-0.864,0.417-1.34,0.431c-0.09-0.005-0.28,0.006-0.235-0.133
		c0.424-0.319,0.716-0.787,0.908-1.274c0.069-0.352,0.22-0.803-0.07-1.092c-0.319-0.286-0.644-0.642-1.101-0.668
		c-1.216,0.08-2.453,0.321-3.517,0.941c-0.83,0.481-1.499,1.224-1.902,2.093c-0.454,1.019-0.928,2.031-1.31,3.079
		c-0.155,0.508-0.207,1.043-0.39,1.543c-0.158,0.437-0.518,0.76-0.682,1.193c-0.172,0.443-0.278,0.91-0.452,1.354
		c-0.291,0.76-0.485,1.562-0.515,2.377c-0.061,0.887,0.232,1.745,0.281,2.625c0.142,1.77,0.718,3.464,1.375,5.1
		c0.185,0.513,0.419,1.01,0.748,1.448c0.592,0.812,1.357,1.473,2.013,2.23c0.341,0.389,0.71,0.755,1.022,1.169
		c0.229,0.303,0.531,0.571,0.914,0.648c0.661,0.132,1.34-0.016,1.979-0.196c1.039-0.316,2.049-0.765,2.927-1.411
		c0.717-0.522,1.405-1.088,2.058-1.689c0.337-0.335,0.703-0.676,0.858-1.139c0.195-0.531,0.39-1.086,0.366-1.659
		c-0.014-0.431-0.404-0.853-0.166-1.277c0.173-0.061,0.355,0.068,0.467,0.195c0.271,0.325,0.411,0.732,0.582,1.115
		c0.313,0.755,0.522,1.579,0.436,2.402c-0.062,0.64-0.367,1.227-0.726,1.749c-0.122,0.162-0.24,0.345-0.431,0.434
		c-0.333,0.167-0.672,0.325-0.99,0.52c-0.271,0.159-0.457,0.427-0.737,0.574c-0.626,0.349-1.309,0.582-1.935,0.932
		c-0.968,0.52-2.036,0.918-3.148,0.901c-1.07,0.012-2.104-0.324-3.083-0.723c-1.098-0.433-2.226-0.85-3.171-1.576
		c-0.549-0.405-0.942-0.973-1.426-1.446c-1.467-1.46-2.607-3.246-3.3-5.196c-0.184-0.537-0.479-1.034-0.575-1.598
		c-0.286-1.466-0.163-2.971-0.069-4.45c0.091-1.536,0.524-3.03,1.112-4.444c0.431-1.018,0.877-2.035,1.454-2.979
		c1.071-1.761,2.474-3.344,4.195-4.492c0.397-0.256,0.804-0.504,1.237-0.695C100.678,13.56,101.551,13.26,102.461,13.136z"/>
	<path fill="#19171C" d="M128.479,14.21c0.166-0.208,0.467-0.162,0.69-0.09c0.144,0.284,0.144,0.686-0.093,0.925
		c-0.219,0.227-0.508,0.365-0.736,0.58c-0.434,0.406-0.771,0.897-1.14,1.36c-0.403,0.505-0.661,1.114-1.104,1.587
		c-0.338,0.36-0.846,0.469-1.313,0.547c-1.551,0.209-3.117-0.063-4.672,0.069c-0.457,0.051-0.896,0.234-1.361,0.214
		c-0.684-0.004-1.397-0.184-2.059,0.062c-0.602,3.054,0.324,6.147-0.041,9.217c1.018-0.034,1.902-0.596,2.717-1.149
		c0.582-0.386,1.178-0.78,1.859-0.963c0.473-0.127,0.979-0.154,1.458-0.036c0.267,0.068,0.543,0.193,0.694,0.438
		c0.186,0.301,0.207,0.664,0.311,0.995c0.104,0.4,0.396,0.715,0.527,1.104c0.339,0.911,0.682,1.865,0.611,2.853
		c-0.213-0.026-0.41-0.145-0.508-0.337c-0.281-0.522-0.209-1.165-0.516-1.676c-0.189-0.316-0.596-0.376-0.931-0.369
		c-0.69,0.025-1.344,0.277-1.983,0.514c-1.353,0.562-2.854,0.729-4.136,1.465c0.104,1.229-0.086,2.471,0.095,3.694
		c0.053,0.467,0.372,0.855,0.411,1.326c0.093,0.837-0.272,1.658-0.13,2.495c1.14,0.015,1.948-0.976,3.048-1.113
		c0.479-0.07,0.965-0.001,1.437,0.093c0.338,0.075,0.688,0.129,1.003,0.282c0.411,0.192,0.806,0.451,1.265,0.516
		c0.549,0.082,1.115,0.03,1.653,0.185c1.05,0.302,2.017,0.859,3.099,1.058c0.574,0.099,1.229,0.078,1.707-0.298
		c0.461-0.355,0.875-0.808,1.09-1.357c0.252-0.753-0.313-1.501-0.07-2.258c0.16-0.005,0.348-0.005,0.461,0.132
		c0.211,0.249,0.226,0.595,0.35,0.887c0.183,0.467,0.373,0.995,0.186,1.491c-0.285,0.654-1.024,0.969-1.298,1.63
		c-0.14,0.367-0.341,0.704-0.505,1.058c-0.188,0.396-0.494,0.714-0.797,1.021c-0.166,0.17-0.395,0.293-0.638,0.281
		c-0.505-0.005-1.005-0.072-1.504-0.135c-1.004-0.138-2.007-0.301-2.995-0.525c-1.486-0.346-2.871-1.039-4.376-1.316
		c-2.522-0.5-5.172-0.23-7.576,0.662c-0.335,0.13-0.694,0.175-1.048,0.226c-0.344,0.057-0.602,0.329-0.94,0.392
		c-0.326,0.033-0.523-0.311-0.557-0.592c-0.013-0.162-0.05-0.413,0.145-0.479c0.592-0.197,1.249,0.068,1.831-0.182
		c0.431-0.255,0.82-0.611,1.064-1.054c0.207-0.532,0.209-1.115,0.249-1.677c0.085-2.476,0.239-4.954,0.165-7.432
		c-0.051-0.795-0.259-1.573-0.271-2.371c-0.015-0.613,0.192-1.203,0.227-1.812c0.054-0.673-0.092-1.337-0.161-2.003
		c-0.092-0.746-0.06-1.499-0.064-2.248c0-0.982-0.016-1.969-0.152-2.944c-0.075-0.429-0.146-0.886-0.408-1.246
		c-0.32-0.41-1-0.287-1.253-0.765c0.118-0.131,0.257-0.255,0.435-0.299c0.339-0.092,0.677,0.058,0.999,0.15
		c0.527,0.17,1.09,0.077,1.626,0.004c0.662-0.102,1.324-0.229,1.998-0.239c0.813-0.024,1.633,0.001,2.438-0.134
		c1.596-0.275,3.203-0.496,4.821-0.595c0.928-0.063,1.865-0.112,2.771-0.337c0.553-0.146,1.129-0.362,1.505-0.814
		C128.263,14.682,128.323,14.416,128.479,14.21z"/>
	<path fill="#19171C" d="M71.686,14.695c0.923-0.2,1.856-0.436,2.809-0.396c0.538,0.016,1.023,0.319,1.565,0.31
		c0.255-0.003,0.536,0.061,0.677,0.295c-0.159,0.365-0.604,0.334-0.932,0.293c-0.53-0.084-1.123,0.063-1.482,0.479
		c-0.304,0.353-0.412,0.822-0.491,1.27c-0.154,0.956-0.23,1.929-0.156,2.896c0.096,1.385,0.789,2.717,0.534,4.124
		c-0.13,0.732-0.002,1.469,0.061,2.2c0.094,0.975,0.188,1.951,0.254,2.928c0.056,1.427,0.479,2.819,0.457,4.251
		c-0.021,1.533,0.13,3.065,0.403,4.573c0.06,0.254,0.086,0.531,0.233,0.754c0.262,0.124,0.533-0.084,0.765-0.192
		c0.478-0.313,1.063-0.362,1.618-0.411c1.414-0.091,2.788,0.326,4.135,0.698c0.594,0.172,1.206,0.278,1.801,0.449
		c0.794,0.222,1.58,0.481,2.378,0.693c0.687,0.184,1.351,0.46,2.059,0.559c1.146,0.15,2.335,0.061,3.43-0.319
		c0.529-0.199,1.11-0.49,1.318-1.057c0.138-0.346,0.275-0.773,0.053-1.114c-0.184-0.261-0.463-0.48-0.49-0.822
		c0.352-0.045,0.729,0.092,0.922,0.401c0.316,0.493,0.339,1.103,0.396,1.668c0.026,0.124-0.055,0.228-0.104,0.333
		c-0.342,0.643-0.572,1.348-1.001,1.942c-0.235,0.328-0.551,0.6-0.915,0.773c-0.955,0.467-2.027,0.577-3.026,0.912
		c-0.402,0.119-0.844,0.131-1.243-0.005c-0.305-0.101-0.598-0.235-0.906-0.327c-0.361-0.112-0.74-0.162-1.1-0.279
		c-1.406-0.486-2.874-0.754-4.33-1.038c-1.37-0.253-2.729-0.601-4.125-0.676c-1.015-0.053-2.073-0.007-3.013,0.417
		c-0.845,0.354-1.645,0.854-2.558,1.018c-0.191,0.053-0.214-0.195-0.224-0.324c0.104-0.137,0.267-0.229,0.328-0.396
		c0.132-0.328,0.11-0.691,0.116-1.038c0-0.663-0.266-1.28-0.36-1.929c-0.18-1.118-0.285-2.25-0.301-3.382
		c-0.017-0.982,0.112-1.964,0.038-2.946c-0.034-0.646-0.189-1.281-0.208-1.928c0.036-1.612-0.157-3.217-0.331-4.817
		c-0.17-1.724-0.147-3.459-0.299-5.185c-0.114-1.24-0.301-2.497-0.799-3.647c-0.165-0.298-0.354-0.663-0.706-0.756
		c-0.692,0.026-1.404,0.026-2.064-0.205c-0.298-0.107-0.615-0.287-0.719-0.606c-0.05-0.109,0.078-0.185,0.156-0.236
		c0.244-0.11,0.516-0.003,0.757,0.067c0.792,0.265,1.637,0.09,2.441-0.021C70.228,14.828,70.97,14.86,71.686,14.695z"/>
	<path fill="#19171C" d="M80.071,17.145c-0.145-0.121-0.071-0.332,0.036-0.45c1.977,0.538,4.03,0.792,6.078,0.768
		c0.341,0.014,0.713,0,1.019,0.176c0.179,0.104,0.101,0.396-0.083,0.444c-0.38,0.105-0.75-0.102-1.126-0.12
		c-0.341,0.074-0.481,0.446-0.535,0.753c-0.117,0.724-0.039,1.459-0.07,2.188c-0.028,3.591,0.211,7.177,0.485,10.756
		c0.079,0.959,0.14,1.92,0.238,2.877c0.197,0.244,0.521,0.339,0.823,0.374c0.369,0.047,0.736-0.113,1.103-0.038
		c0.129,0.024,0.195,0.144,0.262,0.245c-0.28,0.395-0.812,0.401-1.247,0.438c-1.498,0.161-2.987,0.425-4.492,0.539
		c-0.394,0.038-0.804,0.085-1.155,0.283c-0.282,0.142-0.576,0.346-0.908,0.287c-0.104-0.036-0.258-0.077-0.293-0.19
		c0.054-0.346,0.437-0.466,0.726-0.553c0.37-0.126,0.822-0.172,1.071-0.507c0.157-0.354,0.114-0.755,0.132-1.131
		c-0.037-2.646-0.016-5.292-0.077-7.936c-0.013-0.751-0.041-1.501-0.054-2.252c-0.005-0.581,0.171-1.177-0.013-1.745
		c-0.149-0.494-0.357-0.978-0.405-1.497c-0.075-0.789,0.041-1.583-0.053-2.372c-0.042-0.298-0.109-0.623-0.338-0.836
		C80.871,17.372,80.405,17.394,80.071,17.145z"/>
	<path fill="#19171C" d="M4.283,41.253c0.326-0.121,0.682-0.104,1.024-0.121c0.478-0.001,0.96-0.055,1.436,0.021
		c0.756,0.104,1.449,0.459,2.202,0.581c1.208,0.213,2.465,0.042,3.653,0.39c0.666,0.201,1.3,0.5,1.897,0.854
		c0.149,0.094,0.32,0.177,0.408,0.339c0.315,0.523,0.434,1.13,0.589,1.713c0.192,0.72,0.55,1.389,0.681,2.125
		c0.123,0.627,0.199,1.264,0.369,1.881c0.267,0.976,0.707,1.896,0.965,2.875c0.624,2.337,0.725,4.776,1.331,7.117
		c0.201,0.715,0.483,1.412,0.554,2.157c0.091,1.087,0.616,2.085,0.675,3.177c0.443-0.266,0.578-0.802,0.666-1.274
		c0.181-1.098,0.843-2.019,1.308-3.006c0.577-1.194,0.789-2.525,1.339-3.731c0.506-1.117,0.956-2.281,1.086-3.51
		c0.05-0.36,0.037-0.726,0.083-1.085c0.33-0.034,0.607,0.199,0.767,0.467c0.355,0.596,0.778,1.174,0.943,1.859
		c0.14,0.617,0.104,1.257,0.217,1.88c0.058,0.377,0.259,0.719,0.29,1.103c0.063,0.741,0.092,1.485,0.187,2.224
		c0.046,0.396,0.132,0.789,0.174,1.187c0.09,0.789,0.122,1.587,0.298,2.364c0.317,1.562,0.849,3.091,0.92,4.694
		c0.409-0.993,0.817-1.987,1.229-2.979c0.51-1.261,0.971-2.55,1.223-3.89c0.081-0.419,0.001-0.857,0.129-1.269
		c0.155-0.381,0.549-0.594,0.727-0.961c0.221-0.546,0.211-1.165,0.499-1.686c0.598-1.078,0.8-2.313,1.314-3.426
		c0.283-0.61,0.55-1.238,0.628-1.912c0.136-1.15,0.994-2.127,0.9-3.316c-0.117-0.679-0.529-1.265-0.954-1.787
		c-0.295-0.336-0.636-0.688-1.099-0.759c-0.309-0.064-0.755-0.135-0.816-0.511c0.217-0.114,0.468-0.055,0.697-0.021
		c0.825,0.128,1.533,0.604,2.235,1.023c0.837,0.494,1.652,1.042,2.57,1.377c0.678,0.254,1.399,0.38,2.123,0.406
		c0.949,0.036,1.904,0.076,2.84,0.252c0.198,0.05,0.424,0.077,0.578,0.225c0.056,0.09-0.031,0.187-0.095,0.244
		c-0.195,0.157-0.463,0.133-0.697,0.129c-0.552-0.048-1.1,0.084-1.627,0.234c-0.524,0.174-1.068,0.391-1.463,0.787
		c-1.189,1.874-1.941,3.979-2.703,6.052c-0.517,1.423-1.018,2.853-1.623,4.243c-0.209,0.487-0.55,0.915-0.696,1.432
		c-0.161,0.57-0.229,1.162-0.345,1.742c-0.176,0.92-0.521,1.805-0.602,2.743c-0.041,0.451,0.103,0.914-0.034,1.357
		c-0.146,0.388-0.44,0.696-0.614,1.07c-0.414,0.896-0.798,1.808-1.137,2.735c-0.447,1.192-0.958,2.36-1.385,3.561
		c-0.428,1.209-0.592,2.502-1.135,3.671c-0.271,0.571-0.493,1.173-0.566,1.806c-0.091,0.501-0.028,1.034-0.243,1.51
		c-0.056,0.159-0.263,0.139-0.398,0.145c-0.144,0.004-0.24-0.126-0.28-0.248c-0.122-0.365-0.15-0.752-0.249-1.121
		c-0.111-0.397-0.33-0.757-0.413-1.162c-0.291-1.336-0.365-2.711-0.695-4.04c-0.252-0.947-0.518-1.892-0.816-2.825
		c-0.247-0.772-0.597-1.51-0.817-2.291c-0.512-1.877-0.366-3.869-0.932-5.736c-0.358,0.635-0.464,1.369-0.624,2.07
		c-0.137,0.676-0.389,1.319-0.577,1.981c-0.175,0.559-0.213,1.146-0.325,1.718c-0.117,0.596-0.445,1.12-0.604,1.701
		c-0.172,0.632-0.24,1.287-0.438,1.912c-0.282,0.901-0.462,1.83-0.685,2.746c-0.104,0.443-0.279,0.868-0.351,1.318
		c0.007,0.388-0.662,0.4-0.75,0.061c-0.305-0.513-0.132-1.127-0.286-1.678c-0.168-0.633-0.464-1.227-0.602-1.867
		c-0.163-0.684-0.329-1.367-0.516-2.043c-0.191-0.624-0.328-1.263-0.453-1.902c-0.082-0.379-0.119-0.771-0.275-1.129
		c-0.49-1.078-0.514-2.285-0.766-3.428c-0.31-1.337-0.658-2.665-0.918-4.012c-0.195-0.971-0.423-1.935-0.675-2.891
		c-0.176-0.59-0.23-1.205-0.389-1.797c-0.145-0.573-0.647-0.979-0.764-1.563c-0.289-1.024-0.279-2.101-0.547-3.129
		c-0.222-0.845-0.437-1.692-0.709-2.522c-0.212-0.587-0.229-1.224-0.442-1.811c-0.367-1.014-0.536-2.088-0.923-3.096
		c-0.315-0.846-0.771-1.686-1.518-2.225c-0.532-0.4-1.198-0.559-1.848-0.643c-0.589-0.07-1.194-0.099-1.778,0.029
		c-0.528,0.09-1.077,0.325-1.611,0.156C3.977,42.223,4.011,41.924,4,41.717C3.993,41.524,4.092,41.319,4.283,41.253z"/>
	<path fill="#19171C" d="M81.895,44.135c1.033-0.083,2.104,0.088,3.002,0.624c1.114,0.646,1.913,1.684,2.707,2.671
		c0.575,0.706,1.147,1.438,1.885,1.983c0.266-0.793,0.189-1.645,0.365-2.453c0.099-0.494,0.284-0.979,0.275-1.486
		c-0.001-0.291-0.141-0.629-0.449-0.701c-0.25-0.07-0.566-0.141-0.639-0.435c0.067-0.228,0.379-0.244,0.58-0.25
		c0.8,0.052,1.615,0.066,2.387,0.303c0.215,0.072,0.439,0.149,0.601,0.315c-0.302,0.458-0.905-0.123-1.231,0.269
		c-0.111,0.183-0.193,0.382-0.311,0.563c-0.166,1.382-0.572,2.728-0.65,4.121c-0.022,0.211,0.025,0.421,0.047,0.63
		c0.031,0.264-0.141,0.491-0.163,0.747c-0.072,0.701,0.009,1.443,0.371,2.06c0.122,0.223,0.298,0.406,0.45,0.607
		c-0.175,0.08-0.371,0.155-0.563,0.09c-0.383-0.12-0.639-0.457-0.875-0.759c-0.404-0.538-0.756-1.114-1.184-1.633
		c-0.395-0.473-0.701-1.008-1.076-1.494c-0.307-0.395-0.663-0.746-1.021-1.095c-0.69-0.654-1.288-1.422-2.1-1.936
		c-0.229,1.711-0.141,3.442-0.268,5.161c0.159,0.229,0.46,0.282,0.716,0.335c0.413,0.08,0.898,0.082,1.199,0.424
		c-0.079,0.174-0.272,0.264-0.457,0.222c-1.089-0.256-2.208-0.026-3.309-0.026c-0.239-0.014-0.55-0.051-0.66-0.3
		c-0.039-0.081,0.056-0.114,0.109-0.147c0.343-0.188,0.76-0.095,1.112-0.256c0.212-0.096,0.332-0.337,0.311-0.564
		c-0.058-0.629,0.04-1.258,0.098-1.883c0.099-0.994,0.225-1.992,0.165-2.992c-0.035-0.391-0.068-0.813-0.313-1.138
		c-0.135-0.201-0.33-0.373-0.39-0.615c-0.051-0.259-0.354-0.313-0.529-0.466C81.925,44.523,81.878,44.319,81.895,44.135z"/>
	<g>
		<path fill="#19171C" d="M146.878,44.948c1.181-0.126,2.378-0.26,3.563-0.097c0.56,0.086,1.136,0.228,1.591,0.583
			c0.354,0.271,0.691,0.563,1.055,0.823c1.111,0.831,2.131,1.776,3.107,2.76c0.384,0.391,0.736,0.811,1.07,1.244
			c0.367,0.47,0.813,0.889,1.072,1.434c0.354,0.719,0.568,1.494,0.818,2.253c0.141,0.458,0.332,0.901,0.441,1.369
			c0.239,0.97,0.331,1.968,0.398,2.962c0.031,0.27,0.03,0.541,0.011,0.813c-0.042,0.453,0.077,0.926-0.101,1.36
			c-0.939,2.315-2.184,4.493-3.506,6.608c-0.514,0.838-1.119,1.621-1.547,2.509c-0.558,1.115-1.189,2.196-1.936,3.197
			c-0.825,1.105-1.896,1.997-3.01,2.798c-0.619,0.438-1.231,0.898-1.935,1.193c-0.86,0.389-1.806,0.501-2.722,0.684
			c-0.488,0.085-0.99-0.047-1.475,0.072c-0.387,0.094-0.762,0.242-1.16,0.274c-1.44,0.135-2.889,0.255-4.305,0.57
			c-1.271,0.29-2.5,0.797-3.811,0.893c-0.233,0.015-0.436-0.29-0.265-0.477c0.296-0.283,0.729-0.317,1.096-0.467
			c0.847-0.347,1.712-0.657,2.505-1.119c0.371-0.222,0.793-0.349,1.145-0.605c0.391-0.309,0.613-0.779,0.748-1.248
			c0.255-0.933,0.248-1.907,0.299-2.865c0.049-0.791,0.006-1.583-0.025-2.375c-0.055-0.78,0.216-1.531,0.283-2.302
			c0.222-3.354,0.24-6.715,0.416-10.07c0.056-0.775,0.041-1.563,0.242-2.319c0.155-0.594,0.016-1.206,0.083-1.808
			c0.103-1.195,0.425-2.362,0.487-3.563c0.033-0.604-0.016-1.215-0.17-1.802c-1.164,0.048-2.313,0.256-3.471,0.36
			c-1,0.088-2.034,0.117-3.003-0.187c-0.222-0.075-0.454-0.145-0.638-0.291c-0.448-0.401-1.033-0.617-1.447-1.06
			c-0.202-0.201-0.388-0.463-0.355-0.762c0.647-0.058,1.238,0.236,1.809,0.5c0.662,0.314,1.416,0.291,2.129,0.229
			c0.807-0.084,1.608-0.215,2.4-0.396c0.613-0.142,1.234-0.252,1.843-0.419c0.54-0.132,1.079-0.305,1.641-0.318
			c0.584,0.001,1.138-0.209,1.699-0.343C144.913,45.287,145.883,45.045,146.878,44.948z M146.088,48.558
			c-0.279,1.072-0.341,2.182-0.391,3.282c-0.225,4.516-1.26,8.939-1.623,13.441c-0.126,1.58-0.168,3.167-0.233,4.751
			c-0.06,1.783-0.087,3.57,0.067,5.35c0.863,0.039,1.713-0.146,2.557-0.303c0.751-0.127,1.537-0.112,2.252-0.403
			c0.646-0.284,1.129-0.831,1.545-1.386c0.6-0.841,1.105-1.745,1.579-2.662c0.565-1.098,0.871-2.303,1.182-3.492
			c0.15-0.594,0.358-1.174,0.444-1.782c0.063-0.451,0.323-0.838,0.473-1.261c0.43-1.299,0.951-2.576,1.18-3.932
			c0.215-1.322,0.324-2.724-0.133-4.009c-0.123-0.394-0.404-0.703-0.64-1.031c-0.249-0.338-0.401-0.732-0.583-1.106
			c-0.219-0.479-0.452-0.951-0.73-1.398c-0.416-0.687-0.683-1.478-1.258-2.057c-0.701-0.719-1.598-1.225-2.537-1.564
			C148.235,48.638,147.155,48.468,146.088,48.558z"/>
	</g>
	<path fill="#19171C" d="M78.994,45.103c0.221-0.036,0.401-0.234,0.633-0.191c0.434,0.05,0.876-0.09,1.304,0.025
		c0.187,0.047,0.284,0.229,0.331,0.402c-0.529,0.293-1.135-0.046-1.694,0.087c0.051,2.762,0.292,5.521,0.647,8.26
		c0.556,0.26,1.186,0.061,1.713-0.176c0.303,0.161,0.503,0.48,0.468,0.831c-1.089,0.075-2.18-0.017-3.27-0.039
		c-0.668-0.01-1.344-0.012-1.997,0.146c-0.543,0.113-1.223,0.188-1.627-0.281c0.293-0.296,0.739-0.242,1.116-0.207
		c0.285,0.019,0.621,0.063,0.854-0.141c0.228-0.266,0.229-0.642,0.245-0.974c-0.036-2.278-0.326-4.543-0.616-6.801
		c-0.014-0.16-0.135-0.294-0.287-0.342c-0.537-0.173-1.125,0.058-1.656-0.146c-0.201-0.076-0.249-0.298-0.265-0.487
		C76.26,45.002,77.634,45.361,78.994,45.103z"/>
	<path fill="#19171C" d="M108.499,47.597c0.119-0.067,0.26-0.073,0.396-0.096c0.082,0.37-0.04,0.785-0.349,1.016
		c-0.47,0.362-1.07,0.47-1.625,0.637c-0.448,0.137-0.934,0.259-1.28,0.593c-0.425,1.169-0.448,2.436-0.498,3.665
		c-0.071,1.302,0.183,2.588,0.294,3.878c0.137,1.536-0.063,3.081,0.089,4.617c0.093,0.999,0.147,2.004,0.067,3.005
		c-0.072,1.306-0.246,2.68,0.259,3.924c0.571-0.186,1.183-0.23,1.778-0.164c0.811,0.085,1.585,0.348,2.361,0.578
		c1.072,0.313,2.156,0.62,3.153,1.133c0.64,0.326,1.269,0.698,1.974,0.869c1.102,0.271,2.242,0.412,3.377,0.358
		c0.646-0.046,1.325-0.148,1.871-0.524c0.357-0.238,0.41-0.715,0.715-1.003c0.197,0.142,0.266,0.403,0.276,0.636
		c0.018,0.534-0.206,1.034-0.414,1.515c-0.227,0.499-0.456,1.012-0.828,1.423c-0.276,0.314-0.718,0.39-1.115,0.424
		c-1.013,0.058-2.018-0.133-3-0.361c-1.034-0.236-2.014-0.655-3.017-0.99c-1.23-0.422-2.531-0.556-3.793-0.852
		c-1.073-0.244-2.114-0.619-3.201-0.807c-0.78-0.135-1.583-0.213-2.369-0.09c-0.742,0.127-1.475,0.65-2.244,0.355
		c0.021-0.072,0.042-0.149,0.11-0.19c0.282-0.22,0.626-0.36,0.868-0.631c0.148-0.169,0.193-0.398,0.229-0.613
		c0.085-0.661,0.018-1.329,0.03-1.994c-0.02-0.856,0.145-1.706,0.129-2.563c0.01-0.412-0.221-0.774-0.257-1.178
		c-0.211-1.624,0.038-3.257,0.073-4.883c0.055-1.274-0.131-2.541-0.236-3.809c-0.122-1.603-0.146-3.211-0.141-4.817
		c-0.018-0.484-0.068-1.023-0.42-1.392c-0.395-0.391-0.996-0.474-1.524-0.396c-0.573,0.091-1.14,0.315-1.575,0.705
		c-0.209,0.173-0.244,0.501-0.501,0.62c-0.082,0.021-0.236,0.053-0.257-0.061c-0.066-0.258,0.105-0.492,0.266-0.674
		c0.423-0.465,0.916-0.885,1.5-1.132c0.457-0.191,0.963-0.193,1.451-0.169c0.918,0.059,1.827,0.238,2.75,0.226
		c0.876-0.017,1.747-0.125,2.623-0.126c0.443-0.015,0.902-0.003,1.326-0.154C108.094,48.006,108.247,47.733,108.499,47.597z"/>
	<path fill="#19171C" d="M119.44,49.857c0.633-0.246,1.356-0.23,1.99,0.006c0.535,0.198,1.015,0.515,1.504,0.804
		c0.869,0.519,1.703,1.107,2.435,1.81c1.216,1.165,2.132,2.6,2.929,4.071c0.942,1.747,1.718,3.577,2.538,5.383
		c0.194,0.427,0.366,0.869,0.627,1.263c0.345,0.521,0.778,0.977,1.123,1.498c0.233,0.344,0.276,0.769,0.381,1.162
		c0.12,0.453,0.292,0.893,0.499,1.314c0.146-0.2,0.164-0.462,0.239-0.692c0.272-1.128,0.313-2.293,0.388-3.446
		c0.031-0.428,0.034-0.859,0.125-1.278c0.129-0.622,0.37-1.216,0.486-1.841c0.292-1.461,0.579-2.939,0.557-4.436
		c-0.016-0.541-0.055-1.12-0.373-1.578c-0.26-0.377-0.692-0.563-1.058-0.815c-0.237-0.157-0.405-0.393-0.569-0.62
		c-0.236-0.301-0.121-0.773,0.107-1.029c0.455,0.047,0.204,0.731,0.621,0.813c0.838,0.247,1.592,0.718,2.443,0.921
		c0.988,0.28,2.037,0.499,3.061,0.278c0.229-0.032,0.418-0.184,0.643-0.235c0.049,0.292,0.006,0.649-0.27,0.817
		c-0.505,0.311-1.125,0.285-1.676,0.469c-0.748,2.38-1.156,4.85-1.486,7.316c-0.105,0.73-0.331,1.438-0.416,2.17
		c-0.095,0.936-0.149,1.874-0.242,2.809c-0.113,1.011-0.193,2.042-0.527,3.01c-0.215,0.615-0.273,1.27-0.35,1.912
		c-0.128,1.248-0.148,2.506-0.086,3.758c0.028,0.434,0.08,0.959-0.277,1.281c-0.189,0.021-0.387-0.061-0.506-0.209
		c-0.181-0.213-0.247-0.491-0.387-0.729c-0.428-0.744-0.947-1.44-1.267-2.243c-0.143-0.342-0.177-0.718-0.323-1.058
		c-0.604-1.446-1.221-2.889-1.854-4.323c-0.375-0.849-0.75-1.697-1.163-2.527c-0.354-0.72-0.698-1.445-0.995-2.19
		c-0.412-0.964-0.9-1.903-1.532-2.741c-0.251,2.112-0.405,4.237-0.399,6.366c0.02,0.625-0.047,1.269,0.137,1.876
		c0.14,0.578-0.014,1.171-0.084,1.748c-0.058,0.456-0.107,0.96,0.132,1.375c0.249,0.376,0.746,0.441,1.052,0.754
		c0.115,0.114,0.152,0.276,0.152,0.435c-0.31,0.101-0.631-0.008-0.867-0.219c-0.311-0.262-0.682-0.449-1.084-0.512
		c-0.728-0.146-1.477-0.112-2.204-0.249c-0.37-0.074-0.762-0.209-0.999-0.521c-0.184-0.235-0.246-0.538-0.256-0.83
		c0.418,0.036,0.691,0.4,1.075,0.525c0.214,0.081,0.446,0.069,0.67,0.039c0.312-2.271,0.298-4.568,0.274-6.854
		c-0.033-2.168-0.127-4.334-0.162-6.503c0-0.998,0.188-1.999,0.047-2.994c-0.067-0.527-0.426-0.945-0.734-1.354
		c-0.637-0.784-1.152-1.661-1.836-2.406c-0.286-0.301-0.591-0.599-0.963-0.789c-0.576-0.259-1.208-0.003-1.809-0.091
		C118.899,50.203,119.161,49.96,119.44,49.857z"/>
	<path fill="#19171C" d="M63.086,50.322c0.519-0.078,1.124-0.033,1.515,0.358c0.272,0.265,0.319,0.674,0.246,1.031
		c-0.175,0.059-0.395,0.083-0.541-0.054c-0.208-0.215-0.171-0.548-0.323-0.793c-0.094-0.137-0.29-0.117-0.429-0.078
		c-0.538,0.154-0.903,0.638-1.438,0.794c-0.46,0.171-0.952,0.263-1.383,0.505c-0.969,0.577-1.61,1.688-1.573,2.822
		c0.027,1.442,0.555,2.803,0.866,4.196c0.324,1.478,0.419,2.99,0.583,4.49c0.283,2.661,0.874,5.276,1.505,7.874
		c0.297,1.175,0.493,2.389,1.013,3.494c0.114,0.277,0.256,0.576,0.194,0.883c-0.037,0.186-0.275,0.275-0.431,0.172
		c-0.272-0.162-0.438-0.444-0.613-0.698c-0.657-1.087-1.55-2-2.297-3.021c-0.593-0.775-0.985-1.691-1.662-2.403
		c-0.357-0.38-0.639-0.819-0.943-1.241c-1.531-2.167-2.997-4.379-4.592-6.499c-0.002,1.52-0.529,2.965-0.772,4.451
		c-0.071,0.471-0.146,0.948-0.089,1.426c0.075,0.75,0.301,1.498,0.189,2.257c-0.086,0.602-0.461,1.105-0.624,1.683
		c-0.41,1.362-0.274,2.804-0.515,4.193c-0.057,0.381-0.056,0.81,0.194,1.129c0.231,0.333,0.661,0.417,0.946,0.686
		c0.117,0.106,0.161,0.263,0.188,0.413c-0.239,0.067-0.504,0.063-0.723-0.064c-0.473-0.264-0.776-0.752-1.27-0.986
		c-0.7-0.333-1.496-0.324-2.253-0.338c-0.69,0.007-1.383,0.018-2.07-0.057c-0.352-0.039-0.731-0.13-0.969-0.414
		c0.058-0.18,0.231-0.315,0.424-0.234c0.498,0.174,1.036,0.167,1.554,0.121c0.505-0.051,1.034-0.249,1.331-0.683
		c0.302-0.45,0.385-1.003,0.467-1.527c0.116-0.832,0.153-1.675,0.314-2.5c0.5-2.747,1.013-5.505,1.092-8.304
		c0.051-1.623-0.006-3.288-0.547-4.836c-0.287-0.83-0.741-1.594-1.275-2.287c-0.323-0.418-0.674-0.875-1.197-1.045
		c-0.379-0.124-0.729,0.126-1.086,0.211c-0.189-0.226-0.045-0.535,0.052-0.769c0.039-0.128,0.19-0.146,0.295-0.196
		c0.695-0.271,1.477-0.145,2.141,0.154c0.743,0.342,1.462,0.751,2.088,1.281c0.886,0.742,1.63,1.634,2.349,2.535
		c1.104,1.392,2.15,2.83,3.096,4.336c0.143,0.224,0.36,0.39,0.5,0.617c0.368,0.588,0.623,1.238,0.998,1.823
		c0.419,0.626,0.87,1.231,1.37,1.796c-0.033-0.897-0.071-1.801-0.25-2.683c-0.082-0.437-0.253-0.85-0.337-1.285
		c-0.162-0.793-0.17-1.604-0.246-2.406c-0.113-1.351-0.51-2.653-0.729-3.987c-0.188-0.981-0.413-2.014-1.069-2.801
		c-0.577-0.686-1.467-1.076-2.356-1.102c-0.206,0.004-0.252-0.293-0.125-0.416c0.165-0.154,0.399-0.194,0.614-0.232
		c0.684-0.088,1.381-0.124,2.061,0.016c0.666,0.135,1.355,0.106,2.007-0.082c0.544-0.164,1.13-0.271,1.589-0.625
		c0.282-0.198,0.546-0.436,0.877-0.548C61.69,50.628,62.38,50.429,63.086,50.322z"/>
	<g>
		<path fill="#19171C" d="M111.916,52.203c0.442-0.312,0.899-0.652,1.452-0.729c0.969-0.145,1.943,0.177,2.772,0.664
			c0.831,0.475,1.573,1.102,2.458,1.48c0.377,0.164,0.803,0.197,1.166,0.398c0.373,0.352,0.457,0.899,0.449,1.389
			c-0.034,1.097-0.416,2.139-0.728,3.179c-0.352,1.199-0.337,2.467-0.251,3.702c0.061,0.753,0.096,1.521,0.342,2.241
			c0.194,0.594,0.539,1.132,0.98,1.573c0.213,0.219,0.605,0.127,0.789,0.389c0.088,0.107,0,0.239-0.072,0.328
			c-0.211,0.229-0.546,0.271-0.84,0.263c-0.36,0.009-0.642-0.245-0.917-0.44c-0.509-0.403-1.005-0.832-1.411-1.341
			c-0.34-0.442-0.351-1.029-0.596-1.516c-0.631,0.903-1.117,1.903-1.82,2.756c-0.584,0.729-1.386,1.32-2.318,1.496
			c-0.753,0.136-1.555,0.115-2.27-0.174c-0.76-0.299-1.467-0.748-2.041-1.33c-0.326-0.343-0.628-0.754-0.678-1.237
			c-0.059-0.545-0.025-1.094,0.027-1.638c0.068-0.606,0.156-1.216,0.355-1.794c0.112-0.369,0.447-0.594,0.676-0.885
			c0.291-0.357,0.625-0.694,1.049-0.892c0.7-0.332,1.43-0.608,2.188-0.776c0.346-0.063,0.678-0.183,0.982-0.361
			c0.533-0.313,1.142-0.457,1.692-0.732c0.472-0.234,0.863-0.6,1.219-0.983c0.353-0.387,0.469-0.909,0.701-1.363
			c0.094-0.191,0.183-0.423,0.074-0.627c-0.192-0.392-0.57-0.643-0.918-0.885c-0.978-0.625-1.975-1.284-3.123-1.54
			c-0.53-0.117-1.149-0.119-1.591,0.242c-0.3,0.268-0.559,0.583-0.764,0.929c-0.116,0.204-0.225,0.437-0.191,0.678
			c0.045,0.276,0.371,0.402,0.397,0.687c0.047,0.279-0.13,0.599-0.416,0.658c-0.311,0.054-0.595-0.151-0.778-0.381
			c-0.281-0.355-0.397-0.887-0.163-1.295c0.226-0.407,0.491-0.792,0.771-1.164C110.903,52.708,111.466,52.523,111.916,52.203z
			 M115.797,59.963c-0.436,0.147-0.723,0.54-0.963,0.91c-0.356,0.555-0.593,1.179-0.98,1.712c-0.381-0.062-0.37-0.506-0.514-0.777
			c-0.059-0.139-0.225-0.14-0.348-0.157c-0.561-0.066-1.166,0.158-1.492,0.631c-0.304,0.423-0.314,1.028-0.029,1.464
			c0.266,0.412,0.666,0.709,1.027,1.031c0.311,0.277,0.639,0.577,0.763,0.989c0.661-0.724,1.289-1.479,1.972-2.186
			c0.478-0.478,1.019-0.914,1.361-1.509c0.25-0.422,0.357-0.929,0.285-1.415c-0.006-0.2-0.164-0.339-0.289-0.475
			C116.391,59.973,116.078,59.858,115.797,59.963z"/>
	</g>
	<g>
		<path fill="#19171C" d="M93.68,55.872c0.955-0.074,1.855-0.469,2.813-0.52c0.413-0.017,0.845-0.009,1.235,0.144
			c0.539,0.254,1.006,0.649,1.379,1.112c0.495,0.591,0.868,1.286,1.441,1.811c0.166,0.152,0.252,0.371,0.242,0.596
			c-0.32,0.046-0.664,0.059-0.939,0.248c-0.381,0.252-0.55,0.697-0.837,1.037c-0.531,0.613-0.635,1.459-1.063,2.132
			c-0.45,0.731-1.308,1.004-1.971,1.487c0.416,1.055,0.488,2.196,0.665,3.305c0.131,0.881,0.447,1.716,0.707,2.563
			c0.391,1.167,0.752,2.354,1.314,3.454c0.144,0.23,0.279,0.546,0.57,0.611c0.563-0.048,1.13,0.046,1.689-0.043
			c0.354-0.052,0.614-0.328,0.952-0.422c0.149-0.048,0.298,0.012,0.433,0.08c0.02,0.201-0.085,0.396-0.264,0.49
			c-0.438,0.244-0.951,0.274-1.436,0.348c-1.037,0.149-2.065,0.438-3.121,0.392c-0.63-0.028-1.34-0.215-1.691-0.786
			c-0.189-0.267-0.386-0.531-0.547-0.816c-0.155-0.278-0.15-0.606-0.233-0.906c-0.414-1.238-0.555-2.556-1.04-3.773
			c-0.332-0.815-0.221-1.708-0.293-2.564c-0.045-0.434-0.083-0.888-0.294-1.278c-0.119-0.095-0.291-0.037-0.426-0.016
			c-0.324,0.07-0.331,0.474-0.392,0.735c-0.135,1.43-0.365,2.857-0.354,4.297c0.203,0.347,0.69,0.256,0.97,0.5
			c0.129,0.168-0.042,0.448-0.254,0.406c-0.5-0.038-0.953-0.289-1.445-0.367c-0.458-0.098-0.92,0.093-1.379,0.004
			c-0.328-0.061-0.652-0.167-0.99-0.143c-0.373,0-0.758,0.08-1.123-0.021c-0.221-0.051-0.31-0.369-0.145-0.519
			c0.217-0.091,0.424,0.103,0.641,0.094c0.352-0.22,0.545-0.615,0.637-1.009c0.157-0.68,0.122-1.385,0.223-2.073
			c0.148-0.952,0.213-1.916,0.385-2.864c0.101-0.658,0.24-1.326,0.161-1.994c-0.128-0.527,0.044-1.058,0.159-1.57
			c0.257-1.058,0.542-2.16,0.318-3.25c-0.057-0.41-0.448-0.665-0.817-0.77c-0.104-0.021-0.153-0.141-0.151-0.234
			c0.029-0.09,0.135-0.085,0.21-0.097c0.904-0.103,1.815-0.024,2.716,0.087C92.782,55.818,93.229,55.913,93.68,55.872z
			 M93.246,56.901c0.017,0.669,0.015,1.339-0.029,2.007c-0.097,1.59-0.409,3.159-0.464,4.752c0.656-0.003,1.339-0.156,1.858-0.578
			c0.424-0.337,0.724-0.803,0.948-1.288c0.557-1.216,0.74-2.574,1.383-3.755C95.926,57.198,94.567,56.721,93.246,56.901z"/>
	</g>
	<path fill="#19171C" d="M88.157,55.437c0.111-0.012,0.23-0.026,0.328,0.044c-0.254,1.172-0.969,2.186-1.203,3.364
		c-0.104,0.406-0.168,0.918-0.576,1.14c-0.459,0.188-0.97,0.142-1.455,0.14c-1.395-0.012-2.776-0.236-4.166-0.331
		c0.036,1.196,0.189,2.394,0.062,3.591c0.734-0.201,1.332-0.705,2.042-0.961c0.375-0.142,0.78-0.209,1.179-0.168
		c0.613,0.047,1.178,0.376,1.597,0.814c0.209,0.234,0.423,0.512,0.415,0.843c0.008,0.29-0.022,0.612-0.237,0.83
		c-0.309,0.316-0.747,0.487-1.01,0.854c-0.203,0.259-0.437,0.618-0.817,0.55c-0.046-0.331,0.18-0.615,0.407-0.826
		c0.285-0.258,0.464-0.621,0.495-1.004c-0.772,0.045-1.456,0.437-2.153,0.729c-0.645,0.271-1.256,0.612-1.865,0.954
		c-0.016,0.894,0.07,1.786,0.157,2.675c1.06,0.294,2.172,0.229,3.257,0.339c0.361,0.047,0.795,0.215,1.107-0.061
		c0.364-0.372,0.367-0.941,0.64-1.366c0.103-0.18,0.443-0.156,0.466,0.072c0.023,0.3-0.11,0.584-0.232,0.851
		c-0.26,0.464-0.174,1.016-0.169,1.525c0.001,0.367,0.043,0.792-0.209,1.094c-0.264,0.182-0.593,0.251-0.909,0.24
		c-0.468-0.021-0.911-0.186-1.369-0.266c-0.519-0.096-1.054-0.021-1.571-0.134c-1.046-0.218-2.085-0.64-3.172-0.517
		c-0.838,0.101-1.659,0.356-2.509,0.339c-0.344-0.012-0.734-0.08-0.961-0.364c-0.116-0.139-0.097-0.332-0.056-0.494
		c0.514,0.344,1.19,0.343,1.763,0.163c0.201-0.081,0.474-0.188,0.5-0.437c0.093-0.641,0.19-1.292,0.471-1.881
		c0.083-1.539,0.292-3.074,0.224-4.617c-0.016-0.435-0.233-0.828-0.277-1.258c-0.074-0.748,0.101-1.49,0.089-2.236
		c-0.008-0.403-0.098-0.828-0.37-1.139c-0.098-0.139-0.278-0.156-0.425-0.213c-0.443-0.146-0.953-0.281-1.211-0.709
		c1.026-0.214,2.035,0.264,3.065,0.174c0.998-0.116,1.999,0.123,2.998,0.011c0.604-0.065,1.207-0.16,1.816-0.147
		c0.694-0.01,1.433,0.088,2.084-0.215c0.396-0.172,0.594-0.575,0.845-0.898C87.517,56.141,87.959,55.885,88.157,55.437z"/>
	<g>
		<path fill="#19171C" d="M60.426,55.841c-0.092-0.246,0.301-0.471,0.465-0.266c0.094,0.206,0.166,0.442,0.373,0.568
			c0.388,0.297,0.897,0.262,1.355,0.32c0.928,0.132,1.819,0.447,2.75,0.556c1.625,0.194,3.255-0.2,4.881-0.021
			c0.702,0.07,1.338,0.398,2.014,0.577c0.366,0.107,0.763,0.182,1.058,0.442c0.458,0.395,0.71,0.959,1.044,1.452
			c0.578,0.828,1.065,1.72,1.674,2.529c0.381,0.465,0.87,0.84,1.205,1.346c0.095,0.129,0.104,0.311,0.003,0.439
			c-0.165,0.21-0.418,0.328-0.58,0.543c-0.739,0.914-1.219,1.998-1.825,2.997c-0.536,0.874-0.716,1.919-1.286,2.774
			c-0.153,0.267-0.475,0.314-0.718,0.465c-0.496,0.281-0.968,0.621-1.515,0.803c-0.666,0.241-1.385,0.178-2.08,0.191
			c-1.689,0.036-3.333,0.463-4.992,0.739c-0.413,0.068-0.836,0.196-1.254,0.104c-0.282-0.059-0.444-0.358-0.406-0.632
			c0.451-0.079,0.911,0.106,1.362-0.016c0.361-0.072,0.635-0.385,0.703-0.739c0.169-0.816,0.114-1.655,0.089-2.481
			c-0.006-1.447,0.028-2.897-0.111-4.34c-0.062-0.919-0.299-1.813-0.394-2.729c-0.083-0.994-0.126-1.99-0.183-2.986
			c-0.873-0.599-1.877-0.97-2.752-1.563C60.926,56.65,60.544,56.311,60.426,55.841z M67.629,58.845
			c-0.085,0.729,0,1.464,0.064,2.191c0.031,0.795,0,1.6,0.161,2.383c0.158,0.701-0.027,1.412-0.089,2.111
			c-0.11,1.57-0.21,3.148-0.096,4.723c0.727-0.009,1.428-0.353,1.897-0.903c0.542-0.607,0.885-1.355,1.374-2.002
			c0.537-0.708,1.271-1.262,1.69-2.058c0.331-0.571,0.77-1.069,1.19-1.574c-0.308-0.715-0.636-1.425-1.037-2.094
			c-0.479-0.803-1.104-1.54-1.909-2.032c-0.948-0.594-2.085-0.816-3.19-0.824C67.67,58.786,67.643,58.825,67.629,58.845z"/>
	</g>
	<g>
		<path fill="#19171C" d="M42.763,57.501c0.349,0.01,0.555,0.34,0.735,0.597c0.557,0.944,1.535,1.506,2.31,2.247
			c0.752,0.732,1.57,1.456,2.004,2.435c0.466,1.039,0.463,2.213,0.344,3.325c-0.077,0.726-0.167,1.451-0.183,2.183
			c-0.064,1.309-0.293,2.659-1.008,3.782c-0.598,0.959-1.474,1.698-2.379,2.357c-0.305,0.209-0.563,0.478-0.803,0.758
			c-0.214,0.265-0.439,0.542-0.51,0.884c-0.061,0.204-0.08,0.458-0.273,0.588c-0.138,0.101-0.318,0.034-0.442-0.056
			c-0.388-0.275-0.665-0.671-1.016-0.987c-1.237-1.146-2.762-1.92-4.027-3.031c-0.307-0.275-0.627-0.548-0.848-0.899
			c-0.394-0.609-0.559-1.328-0.726-2.025c-0.278-1.219-0.603-2.435-0.716-3.684c-0.095-1.041,0.079-2.13,0.63-3.031
			c0.257-0.432,0.589-0.813,0.943-1.168c0.586-0.604,1.139-1.236,1.712-1.85c0.274-0.271,0.531-0.575,0.877-0.756
			c1.039-0.524,2.117-0.976,3.111-1.584C42.578,57.538,42.667,57.505,42.763,57.501z M40.883,59.987
			c-0.402,0.143-0.731,0.427-1.067,0.681c-0.35,0.29-0.753,0.5-1.141,0.733c-0.347,0.215-0.73,0.47-0.835,0.891
			c-0.142,0.596,0.021,1.204,0.072,1.802c0.089,0.683,0.01,1.374,0.066,2.059c0.01,0.261,0.142,0.493,0.184,0.748
			c0.094,0.92-0.034,1.852,0.105,2.769c0.107,0.523,0.467,0.955,0.848,1.312c0.906,0.801,2.061,1.24,3.004,1.99
			c0.232,0.169,0.337,0.447,0.524,0.658c0.132,0.154,0.375,0.233,0.555,0.111c0.348-0.233,0.584-0.59,0.827-0.922
			c0.52-0.759,1.058-1.584,1.096-2.531c0.049-1.003-0.126-2.004-0.021-3.005c0.076-0.813,0.219-1.622,0.246-2.44
			c0.013-0.524-0.019-1.066-0.235-1.553c-0.207-0.469-0.495-0.898-0.816-1.297c-0.651-0.816-1.538-1.417-2.481-1.846
			C41.522,60.032,41.2,59.862,40.883,59.987z"/>
	</g>
</g>
</svg>
